<svg xmlns="http://www.w3.org/2000/svg" xmlns:xlink="http://www.w3.org/1999/xlink" version="1.1" x="0px" y="0px" viewBox="0 0 64 80" style="enable-background:new 0 0 64 64;" xml:space="preserve"><g><path d="M32,39c-4.962,0-9,4.038-9,9c0,3.525,2.042,6.574,5,8.05V63h8v-6.95c2.958-1.476,5-4.526,5-8.05C41,43.038,36.962,39,32,39   z M34,61h-4v-4.232C30.644,56.915,31.312,57,32,57s1.356-0.085,2-0.232V61z M32,55c-3.86,0-7-3.14-7-7s3.14-7,7-7s7,3.14,7,7   S35.86,55,32,55z"/><path d="M32,43c-2.757,0-5,2.243-5,5s2.243,5,5,5s5-2.243,5-5S34.757,43,32,43z M32,51c-1.654,0-3-1.346-3-3s1.346-3,3-3   s3,1.346,3,3S33.654,51,32,51z"/><path d="M29,20v-2c0-1.103-0.897-2-2-2H3c-1.103,0-2,0.897-2,2v2c0,1.103,0.897,2,2,2h24C28.103,22,29,21.103,29,20z M3,18h24   l0.001,2H3V18z"/><path d="M25.265,34.493l1.722-10.329l-1.973-0.329l-1.722,10.329C23.211,34.648,22.796,35,22.306,35H7.694   c-0.491,0-0.906-0.352-0.986-0.836L4.986,23.835l-1.973,0.329l1.722,10.329C4.977,35.946,6.222,37,7.694,37H9v4h3v10h9v-2h-7v-8h2   v6h5v-2h-3v-4h3v-4h1.306C23.778,37,25.023,35.946,25.265,34.493z M19,39h-8v-2h8V39z"/><path d="M61,16H37c-1.103,0-2,0.897-2,2v2c0,1.103,0.897,2,2,2h24c1.103,0,2-0.897,2-2v-2C63,16.897,62.103,16,61,16z M61,20H37v-2   h24V20z"/><path d="M57.292,34.164C57.211,34.648,56.796,35,56.306,35H41.694c-0.491,0-0.906-0.352-0.986-0.836l-1.722-10.329l-1.973,0.329   l1.722,10.329C38.977,35.946,40.222,37,41.694,37H43v4h3v4h-3v2h5v-6h2v8h-7v2h9V41h3v-4h1.306c1.473,0,2.717-1.054,2.959-2.507   l1.722-10.329l-1.973-0.329L57.292,34.164z M53,39h-8v-2h8V39z"/><path d="M5,9c2.206,0,4-1.794,4-4S7.206,1,5,1S1,2.794,1,5S2.794,9,5,9z M5,3c1.103,0,2,0.897,2,2S6.103,7,5,7S3,6.103,3,5   S3.897,3,5,3z"/><path d="M16,15c1.654,0,3-1.346,3-3s-1.346-3-3-3s-3,1.346-3,3S14.346,15,16,15z M16,11c0.551,0,1,0.449,1,1s-0.449,1-1,1   s-1-0.449-1-1S15.449,11,16,11z"/><path d="M25,9c2.206,0,4-1.794,4-4s-1.794-4-4-4s-4,1.794-4,4S22.794,9,25,9z M25,3c1.103,0,2,0.897,2,2s-0.897,2-2,2s-2-0.897-2-2   S23.897,3,25,3z"/><path d="M59,9c2.206,0,4-1.794,4-4s-1.794-4-4-4s-4,1.794-4,4S56.794,9,59,9z M59,3c1.103,0,2,0.897,2,2s-0.897,2-2,2s-2-0.897-2-2   S57.897,3,59,3z"/><path d="M48,15c1.654,0,3-1.346,3-3s-1.346-3-3-3s-3,1.346-3,3S46.346,15,48,15z M48,11c0.551,0,1,0.449,1,1s-0.449,1-1,1   s-1-0.449-1-1S47.449,11,48,11z"/><path d="M39,9c2.206,0,4-1.794,4-4s-1.794-4-4-4s-4,1.794-4,4S36.794,9,39,9z M39,3c1.103,0,2,0.897,2,2s-0.897,2-2,2s-2-0.897-2-2   S37.897,3,39,3z"/></g></svg>